<?xml version="1.0" encoding="utf-8"?>
<!-- Generator: Adobe Illustrator 22.1.0, SVG Export Plug-In . SVG Version: 6.00 Build 0)  -->
<svg version="1.1" id="Layer_1" xmlns="http://www.w3.org/2000/svg" xmlns:xlink="http://www.w3.org/1999/xlink" x="0px" y="0px"
	 viewBox="0 0 128 128" style="enable-background:new 0 0 128 128;" xml:space="preserve">
<style type="text/css">
	.st0{fill:#3769B2;}
	.st1{fill:#FFFFFF;}
</style>
<path class="st0" d="M14.2,0h99.7c7.8,0,14.2,6.3,14.2,14.2c0,0,0,0,0,0v99.7c0,7.8-6.3,14.2-14.2,14.2h0H14.2
	C6.3,128,0,121.7,0,113.8c0,0,0,0,0,0V14.2C0,6.3,6.3,0,14.2,0C14.2,0,14.2,0,14.2,0"/>
<path class="st1" d="M23.5,11.5h44.9c13.4,0,23.6,3,30.7,8.9c7.2,5.9,10.8,14.3,10.8,25.3c0,11-3.6,19.5-10.8,25.5
	c-7.1,5.9-17.4,8.9-30.7,8.9H50.6v36.4H23.5L23.5,11.5 M50.6,31.1v29.3h15c5.2,0,9.3-1.3,12.2-3.8c2.9-2.6,4.3-6.2,4.3-10.9
	s-1.4-8.3-4.3-10.8s-6.9-3.8-12.2-3.8L50.6,31.1"/>
</svg>
