<?xml version="1.0" encoding="utf-8"?>
<!-- Generator: Adobe Illustrator 22.1.0, SVG Export Plug-In . SVG Version: 6.00 Build 0)  -->
<svg version="1.1" id="Layer_1" xmlns="http://www.w3.org/2000/svg" xmlns:xlink="http://www.w3.org/1999/xlink" x="0px" y="0px"
	 viewBox="0 0 44 45.3" style="enable-background:new 0 0 44 45.3;" xml:space="preserve">
<style type="text/css">
	.st0{display:none;}
	.st1{display:inline;}
	.st2{fill:#E6E7E8;}
	.st3{fill:#B8BDC1;}
	.st4{fill:#434C6D;}
	.st5{fill:#7383BF;}
	.st6{fill:none;stroke:#434C6D;stroke-width:2;stroke-linecap:round;}
	.st7{fill:#BCBDC1;}
</style>
<g id="Layer_1_1_" class="st0">
	<title>69 -Clock- (business, office, desk, flat)</title>
	<desc>Created with Sketch.</desc>
	<g id="Page-1" class="st1">
		<g id="Icons" transform="translate(-1083.000000, -1027.000000)">
			<g id="_x36_9--Clock--_x28_business_x2C_-office_x2C_-desk_x2C_-flat_x29_" transform="translate(1083.000000, 1027.000000)">
				<path id="Fill-829" class="st2" d="M45.2,29c0-16-13-29-29-29s-29,13-29,29s13,29,29,29S45.2,45,45.2,29"/>
				<path id="Fill-830" class="st3" d="M12,3.3C7.9,4,3.9,5.7,0.6,8.2C0.1,8.5,0,9.2,0.4,9.6C0.6,9.9,0.9,10,1.2,10
					c0.2,0,0.4-0.1,0.6-0.2c3.1-2.3,6.8-3.9,10.6-4.5c0.5-0.1,0.9-0.6,0.8-1.1C13.1,3.6,12.6,3.2,12,3.3"/>
				<path id="Fill-831" class="st3" d="M-8.7,26c0.1,0,0.1,0,0.2,0c0.5,0,0.9-0.4,1-0.8c0.6-3.8,2.2-7.4,4.5-10.5
					c0.3-0.4,0.2-1.1-0.2-1.4c-0.4-0.3-1.1-0.2-1.4,0.2c-2.5,3.4-4.2,7.3-4.9,11.4C-9.6,25.4-9.2,25.9-8.7,26"/>
				<path id="Fill-832" class="st3" d="M-7.5,32.8c-0.1-0.5-0.6-0.9-1.1-0.8c-0.5,0.1-0.9,0.6-0.8,1.1c0.7,4.1,2.4,8.1,4.9,11.4
					c0.2,0.3,0.5,0.4,0.8,0.4c0.2,0,0.4-0.1,0.6-0.2c0.4-0.3,0.5-1,0.2-1.4C-5.4,40.3-6.9,36.7-7.5,32.8"/>
				<path id="Fill-833" class="st3" d="M12.3,52.7c-3.8-0.6-7.4-2.2-10.5-4.5c-0.4-0.3-1.1-0.2-1.4,0.2s-0.2,1.1,0.2,1.4
					C3.9,52.3,7.9,54,12,54.7c0.1,0,0.1,0,0.2,0c0.5,0,0.9-0.3,1-0.8C13.2,53.3,12.9,52.8,12.3,52.7"/>
				<path id="Fill-834" class="st3" d="M30.6,48.2c-3.1,2.3-6.7,3.9-10.5,4.5c-0.5,0.1-0.9,0.6-0.8,1.1s0.5,0.8,1,0.8
					c0.1,0,0.1,0,0.2,0c4.1-0.7,8.1-2.4,11.4-4.9c0.4-0.3,0.5-1,0.2-1.4C31.6,48,31,47.9,30.6,48.2"/>
				<path id="Fill-835" class="st3" d="M41,32c-0.5-0.1-1.1,0.3-1.1,0.8c-0.6,3.8-2.2,7.4-4.5,10.5c-0.3,0.4-0.2,1.1,0.2,1.4
					c0.2,0.1,0.4,0.2,0.6,0.2c0.3,0,0.6-0.1,0.8-0.4c2.5-3.4,4.2-7.3,4.9-11.4C41.9,32.6,41.6,32.1,41,32"/>
				<path id="Fill-836" class="st3" d="M39.9,25.2c0.1,0.5,0.5,0.8,1,0.8c0.1,0,0.1,0,0.2,0c0.5-0.1,0.9-0.6,0.8-1.1
					c-0.7-4.1-2.4-8.1-4.9-11.4c-0.3-0.4-1-0.5-1.4-0.2s-0.5,1-0.2,1.4C37.7,17.7,39.2,21.4,39.9,25.2"/>
				<path id="Fill-837" class="st3" d="M20,5.3c3.8,0.6,7.5,2.2,10.6,4.5C30.7,9.9,31,10,31.2,10c0.3,0,0.6-0.1,0.8-0.4
					c0.3-0.4,0.2-1.1-0.2-1.4C28.4,5.7,24.5,4,20.3,3.3c-0.5-0.1-1.1,0.3-1.1,0.8C19.1,4.7,19.5,5.2,20,5.3"/>
				<path id="Fill-838" class="st3" d="M16.2,3c-0.6,0-1,0.4-1,1v4c0,0.6,0.4,1,1,1s1-0.4,1-1V4C17.2,3.4,16.7,3,16.2,3"/>
				<path id="Fill-839" class="st3" d="M16.2,49c-0.6,0-1,0.4-1,1v4c0,0.6,0.4,1,1,1s1-0.4,1-1v-4C17.2,49.5,16.7,49,16.2,49"/>
				<path id="Fill-840" class="st3" d="M41.2,28h-4c-0.6,0-1,0.4-1,1s0.4,1,1,1h4c0.6,0,1-0.4,1-1S41.7,28,41.2,28"/>
				<path id="Fill-841" class="st3" d="M-4.8,30c0.6,0,1-0.4,1-1s-0.4-1-1-1h-4c-0.6,0-1,0.4-1,1s0.4,1,1,1H-4.8z"/>
				<path id="Fill-842" class="st3" d="M33.1,10.6l-2.8,2.8c-0.4,0.4-0.4,1,0,1.4c0.2,0.2,0.5,0.3,0.7,0.3s0.5-0.1,0.7-0.3l2.8-2.8
					c0.4-0.4,0.4-1,0-1.4C34.2,10.2,33.5,10.2,33.1,10.6"/>
				<path id="Fill-843" class="st3" d="M2,43.2c-0.4-0.4-1-0.4-1.4,0L-2.2,46c-0.4,0.4-0.4,1,0,1.4c0.2,0.2,0.5,0.3,0.7,0.3
					c0.3,0,0.5-0.1,0.7-0.3L2,44.6C2.4,44.2,2.4,43.5,2,43.2"/>
				<path id="Fill-844" class="st3" d="M31.7,43.2c-0.4-0.4-1-0.4-1.4,0s-0.4,1,0,1.4l2.8,2.8c0.2,0.2,0.5,0.3,0.7,0.3
					c0.3,0,0.5-0.1,0.7-0.3c0.4-0.4,0.4-1,0-1.4L31.7,43.2z"/>
				<path id="Fill-845" class="st3" d="M0.6,14.8c0.2,0.2,0.5,0.3,0.7,0.3c0.3,0,0.5-0.1,0.7-0.3c0.4-0.4,0.4-1,0-1.4l-2.8-2.8
					c-0.4-0.4-1-0.4-1.4,0s-0.4,1,0,1.4L0.6,14.8z"/>
				<path id="Fill-1003" class="st4" d="M27.2,30h-8c-0.6,0-1-0.4-1-1s0.4-1,1-1h8c0.6,0,1,0.4,1,1S27.7,30,27.2,30"/>
				<path id="Fill-1004" class="st4" d="M16.2,27c-0.6,0-1-0.4-1-1V14c0-0.6,0.4-1,1-1s1,0.4,1,1v12C17.2,26.6,16.7,27,16.2,27"/>
				<path id="Fill-1023" class="st5" d="M19.2,29c0-1.7-1.3-3-3-3s-3,1.3-3,3s1.3,3,3,3S19.2,30.7,19.2,29"/>
				<path id="Stroke-1024" class="st6" d="M19.2,29c0-1.7-1.3-3-3-3s-3,1.3-3,3s1.3,3,3,3S19.2,30.7,19.2,29L19.2,29z"/>
			</g>
		</g>
	</g>
</g>
<g>
	<path id="Fill-1004_1_" class="st7" d="M13.1,36.5c-0.6,0-1-0.4-1-1V8.4c0-0.6,0.4-1,1-1s1,0.4,1,1V36
		C14.1,36.6,13.7,36.5,13.1,36.5"/>
	<path id="Fill-1004_2_" class="st7" d="M12.5,35.5c0-0.6,0.4-1,1-1h21.1c0.6,0,1,0.4,1,1s-0.4,1-1,1H13.5
		C13,36.5,12.5,36.1,12.5,35.5"/>
</g>
</svg>
