<?xml version="1.0" encoding="utf-8"?>
<!-- Generator: Adobe Illustrator 22.1.0, SVG Export Plug-In . SVG Version: 6.00 Build 0)  -->
<svg version="1.1" id="Layer_1" xmlns="http://www.w3.org/2000/svg" xmlns:xlink="http://www.w3.org/1999/xlink" x="0px" y="0px"
	 viewBox="0 0 58 58" style="enable-background:new 0 0 58 58;" xml:space="preserve">
<style type="text/css">
	.st0{fill:#E6E7E8;}
	.st1{fill:#B8BDC1;}
	.st2{fill:#434C6D;}
	.st3{fill:#7383BF;}
	.st4{fill:none;stroke:#434C6D;stroke-width:2;stroke-linecap:round;}
</style>
<title>69 -Clock- (business, office, desk, flat)</title>
<desc>Created with Sketch.</desc>
<g id="Page-1">
	<g id="Icons" transform="translate(-1083.000000, -1027.000000)">
		<g id="_x36_9--Clock--_x28_business_x2C_-office_x2C_-desk_x2C_-flat_x29_" transform="translate(1083.000000, 1027.000000)">
			<path id="Fill-829" class="st0" d="M58,29C58,13,45,0,29,0S0,13,0,29s13,29,29,29S58,45,58,29"/>
			<path id="Fill-830" class="st1" d="M24.8,3.3C20.7,4,16.8,5.7,13.4,8.2c-0.4,0.3-0.5,1-0.2,1.4C13.4,9.9,13.7,10,14,10
				c0.2,0,0.4-0.1,0.6-0.2c3.1-2.3,6.8-3.9,10.6-4.5c0.5-0.1,0.9-0.6,0.8-1.1C25.9,3.6,25.4,3.2,24.8,3.3"/>
			<path id="Fill-831" class="st1" d="M4.2,26c0.1,0,0.1,0,0.2,0c0.5,0,0.9-0.4,1-0.8c0.6-3.8,2.2-7.4,4.5-10.5
				c0.3-0.4,0.2-1.1-0.2-1.4c-0.4-0.3-1.1-0.2-1.4,0.2C5.7,16.8,4,20.7,3.3,24.8C3.2,25.4,3.6,25.9,4.2,26"/>
			<path id="Fill-832" class="st1" d="M5.3,32.8c-0.1-0.5-0.6-0.9-1.1-0.8c-0.5,0.1-0.9,0.6-0.8,1.1c0.7,4.1,2.4,8.1,4.9,11.4
				C8.4,44.9,8.7,45,9,45c0.2,0,0.4-0.1,0.6-0.2c0.4-0.3,0.5-1,0.2-1.4C7.5,40.3,5.9,36.7,5.3,32.8"/>
			<path id="Fill-833" class="st1" d="M25.2,52.7c-3.8-0.6-7.4-2.2-10.5-4.5c-0.4-0.3-1.1-0.2-1.4,0.2c-0.3,0.4-0.2,1.1,0.2,1.4
				c3.4,2.5,7.3,4.2,11.4,4.9c0.1,0,0.1,0,0.2,0c0.5,0,0.9-0.3,1-0.8C26.1,53.3,25.7,52.8,25.2,52.7"/>
			<path id="Fill-834" class="st1" d="M43.4,48.2c-3.1,2.3-6.7,3.9-10.5,4.5c-0.5,0.1-0.9,0.6-0.8,1.1c0.1,0.5,0.5,0.8,1,0.8
				c0.1,0,0.1,0,0.2,0c4.1-0.7,8.1-2.4,11.4-4.9c0.4-0.3,0.5-1,0.2-1.4C44.5,48,43.8,47.9,43.4,48.2"/>
			<path id="Fill-835" class="st1" d="M53.8,32c-0.5-0.1-1.1,0.3-1.1,0.8c-0.6,3.8-2.2,7.4-4.5,10.5c-0.3,0.4-0.2,1.1,0.2,1.4
				c0.2,0.1,0.4,0.2,0.6,0.2c0.3,0,0.6-0.1,0.8-0.4c2.5-3.4,4.2-7.3,4.9-11.4C54.8,32.6,54.4,32.1,53.8,32"/>
			<path id="Fill-836" class="st1" d="M52.7,25.2c0.1,0.5,0.5,0.8,1,0.8c0.1,0,0.1,0,0.2,0c0.5-0.1,0.9-0.6,0.8-1.1
				c-0.7-4.1-2.4-8.1-4.9-11.4c-0.3-0.4-1-0.5-1.4-0.2c-0.4,0.3-0.5,1-0.2,1.4C50.5,17.7,52.1,21.4,52.7,25.2"/>
			<path id="Fill-837" class="st1" d="M32.8,5.3c3.8,0.6,7.5,2.2,10.6,4.5C43.6,9.9,43.8,10,44,10c0.3,0,0.6-0.1,0.8-0.4
				c0.3-0.4,0.2-1.1-0.2-1.4C41.2,5.7,37.3,4,33.2,3.3c-0.5-0.1-1.1,0.3-1.1,0.8C31.9,4.7,32.3,5.2,32.8,5.3"/>
			<path id="Fill-838" class="st1" d="M29,3c-0.6,0-1,0.4-1,1v4c0,0.6,0.4,1,1,1s1-0.4,1-1V4C30,3.4,29.6,3,29,3"/>
			<path id="Fill-839" class="st1" d="M29,49c-0.6,0-1,0.4-1,1v4c0,0.6,0.4,1,1,1s1-0.4,1-1v-4C30,49.5,29.6,49,29,49"/>
			<path id="Fill-840" class="st1" d="M54,28h-4c-0.6,0-1,0.4-1,1s0.4,1,1,1h4c0.6,0,1-0.4,1-1S54.6,28,54,28"/>
			<path id="Fill-841" class="st1" d="M8,30c0.6,0,1-0.4,1-1s-0.4-1-1-1H4c-0.6,0-1,0.4-1,1s0.4,1,1,1H8z"/>
			<path id="Fill-842" class="st1" d="M46,10.6l-2.8,2.8c-0.4,0.4-0.4,1,0,1.4c0.2,0.2,0.5,0.3,0.7,0.3s0.5-0.1,0.7-0.3l2.8-2.8
				c0.4-0.4,0.4-1,0-1.4C47,10.2,46.4,10.2,46,10.6"/>
			<path id="Fill-843" class="st1" d="M14.8,43.2c-0.4-0.4-1-0.4-1.4,0L10.6,46c-0.4,0.4-0.4,1,0,1.4c0.2,0.2,0.5,0.3,0.7,0.3
				c0.3,0,0.5-0.1,0.7-0.3l2.8-2.8C15.2,44.2,15.2,43.5,14.8,43.2"/>
			<path id="Fill-844" class="st1" d="M44.6,43.2c-0.4-0.4-1-0.4-1.4,0c-0.4,0.4-0.4,1,0,1.4l2.8,2.8c0.2,0.2,0.5,0.3,0.7,0.3
				c0.3,0,0.5-0.1,0.7-0.3c0.4-0.4,0.4-1,0-1.4L44.6,43.2z"/>
			<path id="Fill-845" class="st1" d="M13.4,14.8c0.2,0.2,0.5,0.3,0.7,0.3c0.3,0,0.5-0.1,0.7-0.3c0.4-0.4,0.4-1,0-1.4L12,10.6
				c-0.4-0.4-1-0.4-1.4,0c-0.4,0.4-0.4,1,0,1.4L13.4,14.8z"/>
			<path id="Fill-1003" class="st2" d="M40,30h-8c-0.6,0-1-0.4-1-1s0.4-1,1-1h8c0.6,0,1,0.4,1,1S40.6,30,40,30"/>
			<path id="Fill-1004" class="st2" d="M29,27c-0.6,0-1-0.4-1-1V14c0-0.6,0.4-1,1-1s1,0.4,1,1v12C30,26.6,29.6,27,29,27"/>
			<path id="Fill-1023" class="st3" d="M32,29c0-1.7-1.3-3-3-3s-3,1.3-3,3s1.3,3,3,3S32,30.7,32,29"/>
			<path id="Stroke-1024" class="st4" d="M32,29c0-1.7-1.3-3-3-3s-3,1.3-3,3s1.3,3,3,3S32,30.7,32,29L32,29z"/>
		</g>
	</g>
</g>
</svg>
