<?xml version="1.0" encoding="utf-8"?>
<!-- Generator: Adobe Illustrator 22.1.0, SVG Export Plug-In . SVG Version: 6.00 Build 0)  -->
<svg version="1.1" id="Layer_1" xmlns="http://www.w3.org/2000/svg" xmlns:xlink="http://www.w3.org/1999/xlink" x="0px" y="0px"
	 viewBox="0 0 60 60" style="enable-background:new 0 0 60 60;" xml:space="preserve">
<style type="text/css">
	.st0{fill:#90BAE1;}
	.st1{fill:#285680;}
</style>
<title>032 - Disabled toilets</title>
<desc>Created with Sketch.</desc>
<path id="Rectangle-path" class="st0" d="M4.1,0h51.7C58.1,0,60,1.9,60,4.1v51.7c0,2.3-1.9,4.1-4.1,4.1H4.1C1.9,60,0,58.1,0,55.9
	V4.1C0,1.9,1.9,0,4.1,0z"/>
<path id="Rectangle-path_1_" class="st0" d="M5.9,2h48.3C56.3,2,58,3.7,58,5.9v48.3c0,2.1-1.7,3.9-3.9,3.9H5.9C3.7,58,2,56.3,2,54.1
	V5.9C2,3.7,3.7,2,5.9,2z"/>
<path id="Rectangle-path_2_" class="st0" d="M7,5h46c1.1,0,2,0.9,2,2v46c0,1.1-0.9,2-2,2H7c-1.1,0-2-0.9-2-2V7C5,5.9,5.9,5,7,5z"/>
<circle id="Oval" class="st1" cx="24.5" cy="11" r="3.8"/>
<path id="Shape_1_" class="st1" d="M28.8,54c-6.5,0-12.3-4.3-14.1-10.6s0.8-13,6.4-16.5c0.5-0.3,1.2-0.2,1.5,0.3
	c0.3,0.5,0.2,1.2-0.3,1.5c-4.4,2.7-6.6,7.8-5.7,12.9c1,5.1,4.9,9,10,10s10.2-1.3,12.9-5.7c0.2-0.3,0.6-0.5,1-0.5s0.8,0.2,0.9,0.6
	c0.2,0.3,0.2,0.8-0.1,1.1C38.6,51.4,33.9,54,28.8,54z"/>
<path id="Shape_2_" class="st1" d="M46.9,53c-0.4,0.2-0.8,0.3-1.3,0.3c-1,0-1.9-0.5-2.4-1.4l-6.8-12.7H26.1c-0.1,0-0.2,0-0.3,0h0
	c-1.8-0.2-3.3-1.6-3.4-3.5l-0.6-7l-0.5-6c-0.2-2.1,1.4-3.9,3.5-4.1c2.1-0.2,3.9,1.4,4.1,3.5l0.1,1.4H38c1.2,0,2.2,1,2.2,2.2
	c0,1.2-1,2.2-2.2,2.2h-8.8l0.5,6H38c1,0,1.9,0.5,2.4,1.4L48,49.3c0.3,0.6,0.4,1.4,0.2,2.1C48,52,47.6,52.6,46.9,53z"/>
</svg>
