<?xml version="1.0" encoding="utf-8"?>
<!-- Generator: Adobe Illustrator 22.1.0, SVG Export Plug-In . SVG Version: 6.00 Build 0)  -->
<svg version="1.1" id="Layer_1" xmlns="http://www.w3.org/2000/svg" xmlns:xlink="http://www.w3.org/1999/xlink" x="0px" y="0px"
	 viewBox="0 0 58 58" style="enable-background:new 0 0 58 58;" xml:space="preserve">
<style type="text/css">
	.st0{fill:#55974F;}
	.st1{fill:#3B6B36;}
	.st2{fill:#5E5F62;}
	.st3{fill:#F0C419;}
	.st4{fill:#F29C1F;}
	.st5{fill:#BDC3C7;}
	.st6{fill:#84B5CB;}
	.st7{fill:#FFFFFF;}
</style>
<title>018 - Bus</title>
<desc>Created with Sketch.</desc>
<g>
	<path id="Shape" class="st0" d="M11,0h36c2.2,0,4,1.8,4,4v9H7V4C7,1.8,8.8,0,11,0z"/>
	<path id="Shape_1_" class="st1" d="M17,4h24c1.1,0,2,0.9,2,2v3H15V6C15,4.9,15.9,4,17,4z"/>
	<path id="Shape_2_" class="st0" d="M7,28v17l2.7,5.4c0.2,0.3,0.5,0.6,0.9,0.6h36.9c0.4,0,0.7-0.2,0.9-0.6L51,45V28H7z"/>
	<path id="Shape_3_" class="st1" d="M51,45l-2.7,5.4c-0.2,0.3-0.5,0.6-0.9,0.6H10.6c-0.4,0-0.7-0.2-0.9-0.6L7,45H51z"/>
	<path id="Shape_4_" class="st2" d="M11,51h8v5c0,1.1-0.9,2-2,2h-4c-1.1,0-2-0.9-2-2V51z"/>
	<path id="Shape_5_" class="st2" d="M39,51h8v5c0,1.1-0.9,2-2,2h-4c-1.1,0-2-0.9-2-2V51z"/>
	<path id="Shape_6_" class="st3" d="M19,39c0,1.1-0.9,2-2,2h-6v-4h6C18.1,37,19,37.9,19,39z"/>
	<rect id="Rectangle-path" x="47" y="37" class="st4" width="4" height="4"/>
	<path id="Shape_7_" class="st3" d="M39,39c0,1.1,0.9,2,2,2h6v-4h-6C39.9,37,39,37.9,39,39z"/>
	<rect id="Rectangle-path_1_" x="49" y="15" class="st5" width="7" height="7"/>
	<rect id="Rectangle-path_2_" x="2" y="15" class="st5" width="7" height="7"/>
	<rect id="Rectangle-path_3_" x="7" y="9" class="st6" width="44" height="23"/>
	<path id="Rectangle-path_4_" class="st2" d="M1,13h2c0.6,0,1,0.4,1,1v9c0,0.6-0.4,1-1,1H1c-0.6,0-1-0.4-1-1v-9C0,13.4,0.4,13,1,13z
		"/>
	<path id="Rectangle-path_5_" class="st2" d="M57,24h-2c-0.6,0-1-0.4-1-1v-9c0-0.6,0.4-1,1-1h2c0.6,0,1,0.4,1,1v9
		C58,23.6,57.6,24,57,24z"/>
	<rect id="Rectangle-path_6_" x="7" y="37" class="st4" width="4" height="4"/>
	<path id="Shape_8_" class="st7" d="M42,14h-5c-0.6,0-1-0.4-1-1s0.4-1,1-1h5c0.6,0,1,0.4,1,1S42.6,14,42,14z"/>
	<path id="Shape_9_" class="st7" d="M47,14h-1c-0.6,0-1-0.4-1-1s0.4-1,1-1h1c0.6,0,1,0.4,1,1S47.6,14,47,14z"/>
</g>
</svg>
