<?xml version="1.0" encoding="UTF-8"?>
<svg width="58px" height="58px" viewBox="0 0 58 58" version="1.1" xmlns="http://www.w3.org/2000/svg" xmlns:xlink="http://www.w3.org/1999/xlink">
    <!-- Generator: Sketch 49.3 (51167) - http://www.bohemiancoding.com/sketch -->
    <title>045 - Disabled Parking</title>
    <desc>Created with Sketch.</desc>
    <defs></defs>
    <g id="Page-1" stroke="none" stroke-width="1" fill="none" fill-rule="evenodd">
        <g id="045---Disabled-Parking" fill-rule="nonzero">
            <rect id="Rectangle-path" fill="#E6E7E8" x="0" y="0" width="58" height="58" rx="4"></rect>
            <path d="M53.9999997,-3.31787467e-15 L3.99999998,-3.31787467e-15 C2.93904213,-0.00029984767 1.92145226,0.421031222 1.17124174,1.17124174 C0.421031221,1.92145226 -0.00029984767,2.93904213 -3.04610417e-15,3.99999998 L-3.04610417e-15,53.9999997 C-0.000289228365,55.0609543 0.421045251,56.078538 1.17125347,56.8287462 C1.92146168,57.5789544 2.93904538,58.0002889 3.99999998,57.9999997 L53.9999997,57.9999997 C55.0609543,58.0002889 56.078538,57.5789544 56.8287462,56.8287462 C57.5789544,56.078538 58.0002889,55.0609543 57.9999997,53.9999997 L57.9999997,3.99999998 C58.0002995,2.93904213 57.5789685,1.92145226 56.8287579,1.17124174 C56.0785474,0.421031222 55.0609575,-0.00029984767 53.9999997,-3.31787467e-15 Z M54,52 C53.9967543,53.1032223 53.1032223,53.9967543 52,54 L6,54 C4.89677769,53.9967543 4.00324566,53.1032223 4,52 L4,6 C4.00322381,4.89676861 4.89676861,4.00322381 6,4 L52,4 C53.1032314,4.00322381 53.9967762,4.89676861 54,6 L54,52 Z" id="Shape" fill="#E6E7E8"></path>
            <path d="M52,4 L6,4 C4.89676861,4.00322381 4.00322381,4.89676861 4,6 L4,52 C4.00324566,53.1032223 4.89677769,53.9967543 6,54 L52,54 C53.1032223,53.9967543 53.9967543,53.1032223 54,52 L54,6 C53.9967762,4.89676861 53.1032314,4.00322381 52,4 Z M27.66,22.66 C26.1575369,24.1585798 24.1220596,25.0001022 22,25 L16,25 L16,48 C15.9983526,48.5516009 15.5516009,48.9983526 15,49 L12,49 C11.4483991,48.9983526 11.0016474,48.5516009 11,48 L11,10 C11.0016474,9.44839907 11.4483991,9.0016474 12,9 L21.69,9 C25.9670917,8.9385311 29.5745215,12.1717282 29.98,16.43 C30.1437907,18.7444239 29.2977108,21.0164402 27.66,22.66 Z M39,27 C37.8954305,27 37,26.1045695 37,25 C37,23.8954305 37.8954305,23 39,23 C40.1045695,23 41,23.8954305 41,25 C40.9967543,26.1032223 40.1032223,26.9967543 39,27 Z" id="Shape" fill="#4482C3"></path>
            <path d="M25,17 C24.9951506,18.6548414 23.6548414,19.9951506 22,20 L16,20 L16,14 L22,14 C23.6548505,14.0048275 24.9951725,15.3451495 25,17 Z" id="Shape" fill="#4482C3"></path>
            <path d="M25,49 C24.7347342,49.0003006 24.4802902,48.8948521 24.293,48.707 L22.293,46.707 C21.908547,46.3155191 21.9113917,45.6873575 22.2993746,45.2993746 C22.6873575,44.9113917 23.3155191,44.908547 23.707,45.293 L25,46.58594 L31.293,40.29294 C31.48051,40.1054238 31.7348164,40.0000539 32,40 L38,40 L38,31 C38,30.4477153 38.4477153,30 39,30 C39.5522847,30 40,30.4477153 40,31 L40,41 C40.000069,41.2652376 39.8947343,41.5196316 39.707183,41.707183 C39.5196316,41.8947343 39.2652376,42.000069 39,42 L32.41406,42 L25.70706,48.707 C25.5197551,48.8948668 25.2652866,49.0003165 25,49 Z" id="Shape" fill="#E6E7E8"></path>
            <path d="M39,36 L32,36 C31.4477153,36 31,35.5522847 31,35 C31,34.4477153 31.4477153,34 32,34 L39,34 C39.5522847,34 40,34.4477153 40,35 C40,35.5522847 39.5522847,36 39,36 Z" id="Shape" fill="#E6E7E8"></path>
            <path d="M39,50 C36.2662939,50.0080443 33.6793264,48.7642037 31.97852,46.624 C31.6373708,46.1920596 31.7092973,45.5656569 32.1394716,45.2222835 C32.5696459,44.87891 33.1964114,44.9476032 33.542,45.376 C35.3990131,47.6957791 38.5188066,48.5894207 41.3223879,47.6046341 C44.1259692,46.6198474 46.0016063,43.9715098 46,41 C45.9937781,38.4998361 44.6606805,36.190941 42.49854,34.93555 C42.0206839,34.6586013 41.8578163,34.0467111 42.134765,33.568855 C42.4117137,33.0909989 43.0236039,32.9281313 43.50146,33.20508 C47.0284817,35.2426342 48.7475774,39.3948463 47.6930595,43.329246 C46.6385417,47.2636457 43.0732675,49.999514 39,50 Z" id="Shape" fill="#E6E7E8"></path>
            <circle id="Oval" fill="#E6E7E8" cx="39" cy="25" r="3"></circle>
        </g>
    </g>
</svg>