<?xml version="1.0" encoding="utf-8"?>
<!-- Generator: Adobe Illustrator 22.1.0, SVG Export Plug-In . SVG Version: 6.00 Build 0)  -->
<svg version="1.1" id="Layer_1" xmlns="http://www.w3.org/2000/svg" xmlns:xlink="http://www.w3.org/1999/xlink" x="0px" y="0px"
	 viewBox="0 0 58 58" style="enable-background:new 0 0 58 58;" xml:space="preserve">
<style type="text/css">
	.st0{fill:#55974F;}
	.st1{fill:#3B6B36;}
	.st2{fill:#5E5F62;}
	.st3{fill:#F0C419;}
	.st4{fill:#F29C1F;}
	.st5{fill:#BDC3C7;}
	.st6{fill:#84B5CB;}
	.st7{fill:#FFFFFF;}
</style>
<title>018 - Bus</title>
<desc>Created with Sketch.</desc>
<g>
	<path id="Shape" class="st0" d="M15.3,7h27.3c1.7,0,3,1.4,3,3v6.8H12.3V10C12.3,8.4,13.7,7,15.3,7z"/>
	<path id="Shape_1_" class="st1" d="M19.9,10h18.2c0.8,0,1.5,0.7,1.5,1.5v2.3H18.4v-2.3C18.4,10.7,19.1,10,19.9,10z"/>
	<path id="Shape_2_" class="st0" d="M12.3,28.2v12.9l2,4.1c0.2,0.2,0.4,0.5,0.7,0.5h28c0.3,0,0.5-0.2,0.7-0.5l2-4.1V28.2H12.3z"/>
	<path id="Shape_3_" class="st1" d="M45.7,41.1l-2,4.1c-0.2,0.2-0.4,0.5-0.7,0.5H15c-0.3,0-0.5-0.2-0.7-0.5l-2-4.1H45.7z"/>
	<path id="Shape_4_" class="st2" d="M15.3,45.7h6.1v3.8c0,0.8-0.7,1.5-1.5,1.5h-3c-0.8,0-1.5-0.7-1.5-1.5V45.7z"/>
	<path id="Shape_5_" class="st2" d="M36.6,45.7h6.1v3.8c0,0.8-0.7,1.5-1.5,1.5h-3c-0.8,0-1.5-0.7-1.5-1.5V45.7z"/>
	<path id="Shape_6_" class="st3" d="M21.4,36.6c0,0.8-0.7,1.5-1.5,1.5h-4.6v-3h4.6C20.7,35.1,21.4,35.8,21.4,36.6z"/>
	<rect id="Rectangle-path" x="42.7" y="35.1" class="st4" width="3" height="3"/>
	<path id="Shape_7_" class="st3" d="M36.6,36.6c0,0.8,0.7,1.5,1.5,1.5h4.6v-3h-4.6C37.3,35.1,36.6,35.8,36.6,36.6z"/>
	<rect id="Rectangle-path_1_" x="44.2" y="18.4" class="st5" width="5.3" height="5.3"/>
	<rect id="Rectangle-path_2_" x="8.5" y="18.4" class="st5" width="5.3" height="5.3"/>
	<rect id="Rectangle-path_3_" x="12.3" y="13.8" class="st6" width="33.4" height="17.4"/>
	<path id="Rectangle-path_4_" class="st2" d="M7.8,16.9h1.5c0.5,0,0.8,0.3,0.8,0.8v6.8c0,0.5-0.3,0.8-0.8,0.8H7.8
		c-0.5,0-0.8-0.3-0.8-0.8v-6.8C7,17.2,7.3,16.9,7.8,16.9z"/>
	<path id="Rectangle-path_5_" class="st2" d="M50.2,25.2h-1.5c-0.5,0-0.8-0.3-0.8-0.8v-6.8c0-0.5,0.3-0.8,0.8-0.8h1.5
		c0.5,0,0.8,0.3,0.8,0.8v6.8C51,24.9,50.7,25.2,50.2,25.2z"/>
	<rect id="Rectangle-path_6_" x="12.3" y="35.1" class="st4" width="3" height="3"/>
	<path id="Shape_8_" class="st7" d="M38.9,17.6h-3.8c-0.5,0-0.8-0.3-0.8-0.8c0-0.5,0.3-0.8,0.8-0.8h3.8c0.5,0,0.8,0.3,0.8,0.8
		C39.6,17.3,39.3,17.6,38.9,17.6z"/>
	<path id="Shape_9_" class="st7" d="M42.7,17.6h-0.8c-0.5,0-0.8-0.3-0.8-0.8c0-0.5,0.3-0.8,0.8-0.8h0.8c0.5,0,0.8,0.3,0.8,0.8
		C43.4,17.3,43.1,17.6,42.7,17.6z"/>
</g>
</svg>
